<svg width="141" height="44" viewBox="0 0 141 44" fill="none" xmlns="http://www.w3.org/2000/svg">
<path d="M30.0107 26.5174C28.834 28.0716 26.9695 29.0786 24.8734 29.0786C23.7656 29.0786 22.7229 28.7961 21.8116 28.3014L19.1843 31.8118L19.0842 31.9455L18.9841 31.8118L16.3569 28.3014C15.4456 28.7961 14.4029 29.0786 13.295 29.0786C11.199 29.0786 9.33454 28.0716 8.1579 26.5174V28.9636L19.0843 33.7071L30.0107 28.9637V26.5174ZM26.992 12.3537L19.1308 15.512L19.0842 15.5307L19.0376 15.512L11.1765 12.3537V14.6082L15.9374 16.7621L16.052 16.8139L16.0502 16.8179C17.3696 17.4449 18.443 18.5067 19.0842 19.8179C19.7257 18.5061 20.7999 17.4439 22.12 16.817L22.1183 16.8131L22.231 16.7621L26.992 14.6083V12.3537ZM3.23412 9.16269V12.3233L4.20593 15.187L4.2292 15.2556L4.18129 15.3099L2.63748 17.0596L2.54375 17.1659L2.45002 17.0596L0.906266 15.3099L0.858362 15.2556L0.88163 15.187L1.93017 12.0971V7.84187V7.75737L2.00857 7.72588L19.0376 0.884171L19.0842 0.865448L19.1308 0.884171L37.0466 8.08211L37.3353 8.1981L37.0466 8.31409L28.2959 11.8298V14.0184L31.1381 12.7327L31.3146 12.6528V12.8465V34.1114C31.3146 36.1432 30.1185 37.9969 28.2673 38.8344L19.1357 42.9655L19.0842 42.9888L19.0327 42.9655L9.90116 38.8344C8.04995 37.9969 6.85389 36.1432 6.85389 34.1114V12.8465V12.6528L7.03041 12.7327L9.87253 14.0184V11.8297L3.23412 9.16269ZM26.2939 16.3552C27.8005 16.6957 29.108 17.5652 30.0107 18.7575V14.6739L26.2939 16.3552ZM19.7362 22.6374C19.7362 25.47 22.0408 27.7746 24.8734 27.7746C27.706 27.7746 30.0107 25.47 30.0107 22.6374C30.0107 19.8049 27.706 17.5002 24.8734 17.5002C22.0408 17.5002 19.7362 19.8049 19.7362 22.6374ZM30.0107 30.3852L11.8325 38.2769L14.6746 39.5626L30.0107 32.9049V30.3852ZM30.0037 34.3295L16.2783 40.2881L19.0842 41.5575L27.7299 37.6463C29.0487 37.0497 29.9227 35.7634 30.0037 34.3295ZM10.24 37.5467L12.9077 36.3886L8.16486 34.3296C8.24184 35.6894 9.03329 36.9149 10.24 37.5467ZM14.545 35.6778L17.4469 34.418L8.1579 30.3853V32.9049L14.545 35.6778ZM18.4322 22.6374C18.4322 19.8049 16.1276 17.5002 13.295 17.5002C10.4625 17.5002 8.1579 19.8049 8.1579 22.6374C8.1579 25.47 10.4625 27.7746 13.295 27.7746C16.1276 27.7746 18.4322 25.47 18.4322 22.6374ZM8.1579 18.7575C9.06055 17.5652 10.368 16.6957 11.8745 16.3552L8.1579 14.6739V18.7575ZM19.0842 25.4569C18.6862 26.2709 18.122 26.9889 17.4355 27.5664L19.0842 29.7693L20.7329 27.5664C20.0464 26.9889 19.4822 26.2709 19.0842 25.4569ZM33.8375 8.1981L19.0842 2.27077L4.33102 8.1981L19.0842 14.1254L33.8375 8.1981Z" fill="url(#paint0_linear_795_5190)" stroke="url(#paint1_linear_795_5190)" stroke-width="0.25"/>
<path d="M13.2953 24.5859C14.3716 24.5859 15.244 23.7135 15.244 22.6372C15.244 21.561 14.3716 20.6886 13.2953 20.6886C13.0497 20.6886 12.8157 20.736 12.5994 20.8188C12.8816 20.9226 13.0841 21.1915 13.0841 21.5098C13.0841 21.9177 12.7535 22.2483 12.3455 22.2483C11.9839 22.2483 11.6841 21.9879 11.6206 21.6446C11.4477 21.9356 11.3467 22.2743 11.3467 22.6372C11.3467 23.7135 12.2191 24.5859 13.2953 24.5859Z" fill="url(#paint2_linear_795_5190)"/>
<path d="M24.8735 20.6886C24.6279 20.6886 24.3938 20.7359 24.1775 20.8188C24.4598 20.9226 24.6623 21.1915 24.6623 21.5098C24.6623 21.9177 24.3316 22.2484 23.9237 22.2484C23.562 22.2484 23.2622 21.9879 23.1988 21.6446C23.0258 21.9356 22.9248 22.2742 22.9248 22.6372C22.9248 23.7134 23.7972 24.5859 24.8735 24.5859C25.9498 24.5859 26.8222 23.7134 26.8222 22.6372C26.8222 21.561 25.9498 20.6886 24.8735 20.6886Z" fill="url(#paint3_linear_795_5190)"/>
<path d="M54.9082 16.3765L55.0569 16.0283H54.6783H53.0291H52.8633L52.7988 16.1811L49.2412 24.611L45.8397 16.1847L45.7766 16.0283H45.6079H44H43.632L43.7676 16.3704L48.0595 27.2024L46.3248 31.4382L46.1837 31.7829H46.5562H48.1641H48.3292L48.394 31.6311L54.9082 16.3765ZM66.2707 27.8249L66.5135 27.8179V27.575V16.2783V16.0283H66.2635H64.7381H64.4881V16.2783V22.5038C64.4881 23.5494 64.1823 24.457 63.6356 25.0989C63.0925 25.7364 62.2975 26.1293 61.2749 26.1293C60.2305 26.1293 59.4456 25.7355 58.9184 25.1236C58.3872 24.507 58.1029 23.6511 58.1029 22.71V16.2783V16.0283H57.8529H56.3274H56.0774V16.2783V22.71C56.0774 24.016 56.2986 24.8601 56.5827 25.4338C56.8316 25.9365 57.1251 26.2197 57.3132 26.4012C57.3403 26.4273 57.3652 26.4514 57.3875 26.4736C58.2371 27.3233 59.2865 28.1136 61.1099 28.1136C62.5076 28.1136 63.721 27.6618 64.5705 26.6245V27.6162V27.8734L64.8277 27.8661L66.2707 27.8249ZM79.1513 16.375L79.2968 16.0283H78.9208H77.2716H77.1046L77.0406 16.1826L73.3949 24.9867L69.71 16.1818L69.6458 16.0283H69.4794H67.8302H67.4542L67.5997 16.375L72.341 27.6717L72.4053 27.825H72.5715H74.1795H74.3457L74.41 27.6717L79.1513 16.375ZM91.9078 27.825H92.1578V27.575V16.2783V16.0283H91.9078H90.4648H90.2148V16.2783V17.6337C90.0636 17.4439 89.8736 17.2373 89.6398 17.0331C88.907 16.3933 87.7467 15.7809 86.0121 15.7809C82.4532 15.7809 79.7427 18.6128 79.7427 21.8854C79.7427 23.941 80.7253 25.354 80.8647 25.5398L80.8711 25.5484L80.8783 25.5564C82.6599 27.5502 84.6256 28.1136 86.0946 28.1136C87.6182 28.1136 89.2251 27.4996 90.2148 26.2468V27.575V27.825H90.4648H91.9078ZM111.492 27.825H111.742V27.575V21.0608C111.742 19.7616 111.533 18.4784 110.51 17.4994C109.545 16.5769 108.372 15.7809 106.915 15.7809C106.066 15.7809 105.21 16.0198 104.494 16.421C103.919 16.7438 103.422 17.1788 103.096 17.6928C102.225 16.536 100.786 15.7809 99.2053 15.7809C97.9415 15.7809 97.138 16.2414 96.6456 16.7169C96.5583 16.8011 96.4813 16.8853 96.4135 16.9668C96.4169 16.8727 96.4208 16.7787 96.4248 16.6916C96.4299 16.5791 96.435 16.4793 96.4388 16.4076L96.4435 16.3233L96.4448 16.3006L96.4451 16.2948L96.4452 16.2934L96.4452 16.293L96.4452 16.293L96.4608 16.0283H96.1956H94.7526H94.5026V16.2783V27.575V27.825H94.7526H96.2781H96.5281V27.575V20.6073C96.5281 19.7363 96.8174 19.029 97.2966 18.5406C97.7755 18.0523 98.4612 17.7651 99.2878 17.7651C100.865 17.7651 102.089 19.0375 102.089 20.8134V27.575V27.825H102.339H103.864H104.114V27.575V20.5661C104.114 19.6806 104.43 18.9846 104.924 18.5095C105.419 18.0328 106.108 17.7651 106.874 17.7651C107.807 17.7651 108.509 18.1521 108.983 18.7391C109.462 19.3317 109.716 20.1394 109.716 20.9784V27.575V27.825H109.966H111.492ZM124.131 16.3765L124.229 16.1486V16.2783V17.6801V17.9301H124.479H126.579V27.575V27.825H126.829H128.354H128.604V27.575V17.9301H130.993H131.243V17.6801V16.2783V16.0283H130.993H128.604V12.3203V12.0703H128.354H126.829H126.579V12.3203V16.0283H124.479H124.28H124.229H123.901H122.252H122.086L122.022 16.1811L118.464 24.611L115.063 16.1847L115 16.0283H114.831H113.223H112.855L112.991 16.3704L117.283 27.2024L115.548 31.4382L115.407 31.7829H115.779H117.387H117.552L117.617 31.6311L124.131 16.3765ZM137.436 17.8061L137.674 17.7947V17.5564V16.0309V15.7809H137.424C136.071 15.7809 135.069 16.285 134.417 17.0732V16.2783V16.0283H134.167H132.724H132.474V16.2783V27.575V27.825H132.724H134.25H134.5V27.575V20.7722C134.5 19.0672 135.82 17.883 137.436 17.8061ZM140 27.825H140.25V27.575V24.9775V24.7275H140H138.477H138.227V24.9775V27.575V27.825H138.477H140ZM90.2148 21.9678C90.2148 24.1462 88.3815 26.1293 86.0946 26.1293C83.785 26.1293 81.7682 24.2888 81.7682 22.0091C81.7682 19.6749 83.675 17.7651 86.0534 17.7651C88.4257 17.7651 90.2148 19.6276 90.2148 21.9678Z" fill="url(#paint4_linear_795_5190)" stroke="url(#paint5_linear_795_5190)" stroke-width="0.5"/>
<defs>
<linearGradient id="paint0_linear_795_5190" x1="1" y1="16.0817" x2="37.0036" y2="16.5673" gradientUnits="userSpaceOnUse">
<stop stop-color="#357CBD"/>
<stop offset="0.903646" stop-color="#3AAFAA"/>
</linearGradient>
<linearGradient id="paint1_linear_795_5190" x1="1" y1="16.0817" x2="37.0036" y2="16.5673" gradientUnits="userSpaceOnUse">
<stop stop-color="#357CBD"/>
<stop offset="0.903646" stop-color="#3AAFAA"/>
</linearGradient>
<linearGradient id="paint2_linear_795_5190" x1="11.3467" y1="22.093" x2="15.2442" y2="22.1541" gradientUnits="userSpaceOnUse">
<stop stop-color="#357CBD"/>
<stop offset="0.903646" stop-color="#3AAFAA"/>
</linearGradient>
<linearGradient id="paint3_linear_795_5190" x1="22.9248" y1="22.093" x2="26.8223" y2="22.1541" gradientUnits="userSpaceOnUse">
<stop stop-color="#357CBD"/>
<stop offset="0.903646" stop-color="#3AAFAA"/>
</linearGradient>
<linearGradient id="paint4_linear_795_5190" x1="44" y1="24.6095" x2="139.441" y2="17.1332" gradientUnits="userSpaceOnUse">
<stop stop-color="#357CBD"/>
<stop offset="0.903646" stop-color="#3AAFAA"/>
</linearGradient>
<linearGradient id="paint5_linear_795_5190" x1="44" y1="24.6095" x2="139.441" y2="17.1332" gradientUnits="userSpaceOnUse">
<stop stop-color="#357CBD"/>
<stop offset="0.903646" stop-color="#3AAFAA"/>
</linearGradient>
</defs>
</svg>
